# xmcd CD database file
#
# Track frame offsets:
#	180
#	10305
#	19191
#	26551
#	33286
#	36903
#	42270
#	49316
#	55214
#	66132
#	78055
#	85101
#	103835
#	116002
#	130332
#
# Disc length: 2019 seconds
#
# Revision: 0
# Processed by: cddbd v1.5.1PL0 Copyright (c) Steve Scherf et al.
# Submitted via: CDex 1.51
#
DISCID=c007e10f
DTITLE=Beautiful People - Jazz Dance Motivations
DYEAR=1997
DGENRE=Jazz
TTITLE0=Pulse
TTITLE1=Double Pulse
TTITLE2=Syncopated Up And
TTITLE3=Syncopated Down And
TTITLE4=Glide
TTITLE5=Motivations in Combination
TTITLE6=Chain Step
TTITLE7=Half Chain with Turns
TTITLE8=Head - Neck
TTITLE9=Shoulders
TTITLE10=Rib Cage
TTITLE11=Pelvis
TTITLE12=Knees
TTITLE13=Feet, Ankles, Legs
TTITLE14=Movement in Space, Improvisation
EXTD=YEAR: 1997
EXTT0=
EXTT1=
EXTT2=
EXTT3=
EXTT4=
EXTT5=
EXTT6=
EXTT7=
EXTT8=
EXTT9=
EXTT10=
EXTT11=
EXTT12=
EXTT13=
EXTT14=
PLAYORDER=
